<svg width="138" height="26" viewBox="0 0 138 26" fill="none" xmlns="http://www.w3.org/2000/svg">
<g clip-path="url(#clip0_1395_114)">
<path d="M7.945 26V15.5L0 3.32V1.22H5.88L10.08 10.18H10.78L14.945 1.22H20.895V3.32L12.67 15.71L12.88 19.245V26H7.945Z" fill="white"/>
<path d="M59.7012 26V5.87571L59 2.20339L59.7012 0H68.8164C70.5926 0 72.1235 0.220339 73.409 0.661017C74.7178 1.07722 75.7345 1.76271 76.4591 2.71751C77.1836 3.67232 77.5459 4.94538 77.5459 6.53672C77.5459 7.516 77.3822 8.44633 77.0551 9.32768C76.7512 10.1846 76.2253 10.9068 75.4775 11.4943C76.9499 12.0329 78.0718 12.8408 78.8431 13.9181C79.6144 14.9953 80 16.4275 80 18.2147C80 20.9322 79.2754 22.9153 77.8264 24.1638C76.3773 25.388 74.1919 26 71.2705 26H59.7012ZM64.6093 10.4661H69.4474C71.4107 10.4661 72.3923 9.5603 72.3923 7.74859C72.3923 6.84275 72.1936 6.12052 71.7963 5.58192C71.399 5.04332 70.616 4.77401 69.4474 4.77401H64.6093V10.4661ZM64.6093 21.226H70.9199C72.1585 21.226 73.0584 20.9322 73.6194 20.3446C74.2036 19.7571 74.4958 18.9369 74.4958 17.8842C74.4958 16.8804 74.1803 16.1215 73.5493 15.6073C72.9415 15.0932 71.9482 14.8362 70.5693 14.8362H64.6093V21.226Z" fill="white"/>
<path d="M125.085 26V5.7L117.385 6.05V1.22H137.86V6.05L129.985 5.7V20.4L130.37 23.9L129.985 26H125.085Z" fill="white"/>
<path d="M25 13C25 11.3768 25.1991 9.78266 25.5975 8.21739C26.0224 6.68116 26.766 5.28986 27.8283 4.04348C28.8905 2.7971 30.3644 1.8116 32.25 1.08696C34.1355 0.362316 36.5522 0 39.5 0C42.4478 0 44.8644 0.362316 46.75 1.08696C48.6355 1.8116 50.1094 2.7971 51.1717 4.04348C52.2339 5.28986 52.9642 6.68116 53.3626 8.21739C53.7875 9.78266 54 11.3768 54 13C54 14.7102 53.7875 16.3333 53.3626 17.8696C52.9377 19.4348 52.1941 20.8261 51.1318 22.0435C50.0696 23.2608 48.5957 24.2174 46.7101 24.9131C44.8246 25.6377 42.4212 26 39.5 26C36.5787 26 34.1753 25.6377 32.2898 24.9131C30.4043 24.2174 28.9304 23.2608 27.8681 22.0435C26.8058 20.8261 26.0622 19.4348 25.6373 17.8696C25.2124 16.3333 25 14.7102 25 13ZM30.5769 13C30.5769 14.8261 30.9221 16.2029 31.6126 17.1305C32.3296 18.0579 33.3521 18.6812 34.6799 19C36.0343 19.3478 37.641 19.5217 39.5 19.5217C41.3855 19.5217 42.9922 19.3478 44.32 19C45.6479 18.6812 46.657 18.0579 47.3475 17.1305C48.0645 16.2029 48.423 14.8261 48.423 13C48.423 11.2029 48.0645 9.82613 47.3475 8.86957C46.6305 7.94203 45.608 7.31884 44.2802 7C42.9523 6.68116 41.3589 6.52174 39.5 6.52174C37.6675 6.52174 36.0741 6.68116 34.7197 7C33.3919 7.31884 32.3695 7.94203 31.6524 8.86957C30.9354 9.82613 30.5769 11.2029 30.5769 13Z" fill="white"/>
<path d="M85 13C85 11.3768 85.1991 9.7826 85.5975 8.21739C86.0224 6.68116 86.766 5.28986 87.8283 4.04348C88.8905 2.7971 90.3644 1.8116 92.25 1.08696C94.1354 0.362319 96.5521 -1.34007e-07 99.4999 0C102.448 1.34006e-07 104.864 0.362319 106.75 1.08696C108.635 1.8116 110.109 2.7971 111.171 4.04348C112.234 5.28986 112.964 6.68116 113.362 8.21739C113.787 9.78261 114 11.3768 114 13C114 14.7102 113.787 16.3333 113.362 17.8696C112.937 19.4348 112.194 20.8261 111.132 22.0435C110.069 23.2608 108.595 24.2174 106.71 24.9131C104.824 25.6377 102.421 26 99.4999 26C96.5786 26 94.1752 25.6377 92.2897 24.9131C90.4043 24.2174 88.9304 23.2608 87.8681 22.0435C86.8058 20.8261 86.0622 19.4348 85.6373 17.8696C85.2124 16.3333 85 14.7102 85 13ZM90.5769 13C90.5769 14.8261 90.9221 16.2029 91.6125 17.1305C92.3295 18.0579 93.352 18.6812 94.6798 19C96.0342 19.3478 97.6409 19.5217 99.4999 19.5217C101.385 19.5217 102.992 19.3478 104.32 19C105.648 18.6812 106.657 18.0579 107.347 17.1305C108.064 16.2029 108.423 14.8261 108.423 13C108.423 11.2029 108.064 9.82609 107.347 8.86957C106.63 7.94203 105.608 7.31884 104.28 7C102.952 6.68116 101.359 6.52174 99.4999 6.52174C97.6674 6.52174 96.074 6.68116 94.7196 7C93.3918 7.31884 92.3694 7.94203 91.6524 8.86957C90.9354 9.82609 90.5769 11.2029 90.5769 13Z" fill="white"/>
</g>
<defs>
<clipPath id="clip0_1395_114">
<rect width="138" height="26" fill="white"/>
</clipPath>
</defs>
</svg>
