<svg width="685" height="226" viewBox="0 0 685 226" fill="none" xmlns="http://www.w3.org/2000/svg">
<mask id="mask0_2_134" style="mask-type:alpha" maskUnits="userSpaceOnUse" x="0" y="0" width="685" height="226">
<path d="M52.6499 64.7284L63.8423 26.1002L63.6139 37.3944V46.6007V64.7284H84.5139V1.42364H53.792L43.7417 35.4013L33.6914 1.42364H2.96941V64.7284H23.8695V44.8923C23.7553 30.9406 23.7553 30.7507 23.6411 26.1002L34.8334 64.7284H52.6499Z" fill="white"/>
<path d="M118.063 1.42364H94.4215V64.7284H118.063V1.42364Z" fill="white"/>
<path d="M196.046 64.7284V1.42364H173.204V11.579C173.204 15.755 173.204 20.3107 173.319 25.0562C173.319 28.7576 173.319 30.7507 173.547 34.2624L150.249 1.42364H127.978V64.7284H150.82V55.1425C150.82 50.0174 150.82 45.2719 150.705 40.8112C150.705 35.1166 150.705 34.2624 150.477 31.1304L174.004 64.7284H196.046Z" fill="white"/>
<path d="M244.526 18.2227H266.34V1.42364H199.072V18.2227H220.885V64.7284H244.526V18.2227Z" fill="white"/>
<path d="M366.216 64.7284V1.42364H343.374V11.579C343.374 15.755 343.374 20.3107 343.489 25.0562C343.489 28.7576 343.489 30.7507 343.717 34.2624L320.419 1.42364H298.148V64.7284H320.99V55.1425C320.99 50.0174 320.99 45.2719 320.875 40.8112C320.875 35.1166 320.875 34.2624 320.647 31.1304L344.174 64.7284H366.216Z" fill="white"/>
<path d="M436.861 1.42364H375.988V64.7284H398.829V42.4246H429.894V26.5747H398.829V18.2227H436.861V1.42364Z" fill="white"/>
<path d="M483.056 18.2227H504.87V1.42364H437.601V18.2227H459.415V64.7284H483.056V18.2227Z" fill="white"/>
<path d="M568.991 20.2158C568.535 14.711 567.392 11.6739 564.309 8.44696C559.284 2.9422 550.261 0 538.269 0C519.654 0 506.976 7.87751 506.976 19.5514C506.976 23.4427 508.575 27.2391 511.431 30.1813C514.743 33.5031 519.425 35.781 527.877 37.9639L542.952 41.8552C547.635 43.089 549.348 44.2279 549.348 46.1261C549.348 48.9734 545.236 50.9665 539.411 50.9665C532.216 50.9665 528.105 48.309 527.877 43.5636H504.464C505.035 49.8276 506.748 53.5291 510.631 57.1356C516.913 62.9251 526.963 66.1521 538.955 66.1521C559.17 66.1521 572.646 57.4204 572.646 44.4177C572.646 34.5471 566.136 29.3271 548.662 25.1511L534.158 21.6394C531.074 20.8801 529.818 19.931 529.818 18.3176C529.818 16.1347 533.244 14.5212 537.813 14.5212C542.724 14.5212 545.693 16.4194 547.063 20.2158H568.991Z" fill="white"/>
<path d="M2.96941 144.652H45.1122C55.9619 144.652 60.7587 143.513 65.0986 139.907C69.3242 136.585 71.7226 131.365 71.7226 125.955C71.7226 118.457 67.6111 113.142 59.5024 110.105C65.5554 106.878 68.068 103.177 68.068 97.8619C68.068 93.1164 66.0122 88.9404 62.2434 85.9982C57.7892 82.5814 52.7641 81.3476 42.3712 81.3476H2.96941V144.652ZM25.811 105.265V95.8688H39.9728C44.4269 95.8688 46.7111 97.4823 46.7111 100.519C46.7111 103.651 44.4269 105.265 39.9728 105.265H25.811ZM25.811 129.182V118.078H40.4296C46.5969 118.078 49.6805 119.976 49.6805 123.582C49.6805 127.284 46.5969 129.182 40.4296 129.182H25.811Z" fill="white"/>
<path d="M142.429 81.3476H78.2441V144.652H144.256V127.853H101.086V119.406H137.29V104.885H101.086V97.1975H142.429V81.3476Z" fill="white"/>
<path d="M213.276 81.3476H152.403V144.652H175.245V122.349H206.31V106.499H175.245V98.1466H213.276V81.3476Z" fill="white"/>
<path d="M253.733 79.924C230.548 79.924 214.559 93.4011 214.559 112.953C214.559 132.599 230.548 146.076 253.733 146.076C276.803 146.076 293.02 132.599 293.02 113.427C293.02 93.3062 277.374 79.924 253.733 79.924ZM253.733 95.7739C263.326 95.7739 269.379 102.512 269.379 113.142C269.379 123.488 263.212 130.226 253.847 130.226C244.253 130.226 238.2 123.488 238.2 112.953C238.2 102.512 244.253 95.7739 253.733 95.7739Z" fill="white"/>
<path d="M322.448 122.538H332.042C341.293 122.538 344.262 125.196 345.176 134.782L345.633 139.243C345.975 142.564 346.204 143.229 347.232 144.652H370.302C369.16 143.039 368.817 142.28 368.474 139.243L366.99 128.802C365.962 121.684 362.764 117.698 356.368 115.23C363.906 111.719 367.561 106.594 367.561 99.4754C367.561 93.2113 364.249 87.7066 358.652 84.7644C353.513 82.1069 348.374 81.3476 335.24 81.3476H299.607V144.652H322.448V122.538ZM322.448 108.587V95.8688H334.098C341.407 95.8688 344.719 97.8619 344.719 102.228C344.719 106.594 341.407 108.587 334.098 108.587H322.448Z" fill="white"/>
<path d="M440.962 81.3476H376.778V144.652H442.79V127.853H399.619V119.406H435.823V104.885H399.619V97.1975H440.962V81.3476Z" fill="white"/>
<path d="M516.739 98.1466H538.552V81.3476H471.284V98.1466H493.098V144.652H516.739V98.1466Z" fill="white"/>
<path d="M586.364 119.596V144.652H609.205V81.3476H586.364V102.797H564.436V81.3476H541.594V144.652H564.436V119.596H586.364Z" fill="white"/>
<path d="M683.173 81.3476H618.988V144.652H685V127.853H641.829V119.406H678.033V104.885H641.829V97.1975H683.173V81.3476Z" fill="white"/>
<path d="M73.0931 184.335C69.7811 169.149 56.4188 159.848 38.1455 159.848C15.9891 159.848 0 173.515 0 192.402C0 211.953 15.9891 226 38.3739 226C50.3657 226 61.1013 221.824 67.3827 214.706C71.0374 210.53 72.8647 206.259 73.6642 199.805H50.3657C49.1094 206.544 44.8837 210.15 38.0313 210.15C29.3515 210.15 22.8416 202.652 22.8416 192.687C22.8416 182.626 28.8946 175.698 37.6886 175.698C44.1985 175.698 49.1094 179.115 50.3657 184.714L73.0931 184.335Z" fill="white"/>
<path d="M101.309 202.462H110.902C120.153 202.462 123.122 205.12 124.036 214.706L124.493 219.167C124.836 222.488 125.064 223.153 126.092 224.576H149.162C148.02 222.963 147.677 222.204 147.335 219.167L145.85 208.726C144.822 201.608 141.624 197.622 135.229 195.154C142.766 191.643 146.421 186.518 146.421 179.399C146.421 173.135 143.109 167.631 137.513 164.688C132.373 162.031 127.234 161.272 114.1 161.272H78.4671V224.576H101.309V202.462ZM101.309 188.511V175.793H112.958C120.267 175.793 123.579 177.786 123.579 182.152C123.579 186.518 120.267 188.511 112.958 188.511H101.309Z" fill="white"/>
<path d="M190.615 159.848C167.431 159.848 151.442 173.325 151.442 192.877C151.442 212.523 167.431 226 190.615 226C213.685 226 229.902 212.523 229.902 193.351C229.902 173.23 214.256 159.848 190.615 159.848ZM190.615 175.698C200.208 175.698 206.261 182.436 206.261 193.066C206.261 203.411 200.094 210.15 190.729 210.15C181.136 210.15 175.083 203.411 175.083 192.877C175.083 182.436 181.136 175.698 190.615 175.698Z" fill="white"/>
<path d="M271.214 224.576L277.609 197.242C278.751 192.782 279.322 189.839 279.893 185.094C280.35 189.175 281.15 193.921 281.949 197.242L288.345 224.576H311.415L331.059 161.272H307.989L300.908 190.599C300.908 190.694 300.679 192.022 300.337 193.256C300.222 194.11 300.108 194.87 299.88 195.534C299.423 198.002 299.423 198.002 299.08 200.09C298.852 198.002 298.852 197.812 298.395 195.534C298.167 194.68 298.053 193.921 297.938 193.256C297.596 192.022 297.367 190.599 297.367 190.599L289.944 161.272H269.386L262.077 190.883C261.392 193.541 260.592 197.527 260.364 200.09C260.021 197.337 259.222 192.877 258.651 190.883L251.341 161.272H228.043L248.715 224.576H271.214Z" fill="white"/>
<path d="M333.847 224.576H366.282C380.558 224.576 390.151 221.349 397.118 214.231C402.372 208.726 404.999 201.893 404.999 193.351C404.999 183.765 401.572 175.698 395.177 169.813C388.324 163.549 380.215 161.272 365.254 161.272H333.847V224.576ZM356.689 208.726V177.122H364.112C370.85 177.122 375.076 178.545 378.16 181.962C380.786 184.999 382.157 188.89 382.157 193.541C382.157 203.696 376.332 208.726 364.797 208.726H356.689Z" fill="white"/>
</mask>
<g mask="url(#mask0_2_134)">
<rect x="-22" y="-107" width="799" height="349" fill="url(#paint0_linear_2_134)"/>
</g>
<defs>
<linearGradient id="paint0_linear_2_134" x1="-22" y1="227.768" x2="270.93" y2="-459.448" gradientUnits="userSpaceOnUse">
<stop offset="0.0177305" stop-color="#FF02CC"/>
<stop offset="0.276042" stop-color="#8444DF"/>
<stop offset="0.572917" stop-color="#63CEA6"/>
<stop offset="1" stop-color="#D67336"/>
</linearGradient>
</defs>
</svg>
